# xmcd
#
# Track frame offsets: 
#        188
#        43690
#        59533
#        67870
#        112703
#        116705
#        135013
#        136205
#        147110
#        152150
#        183148
#        196308
#        207315
#
# Disc length: 3094 seconds
#
# Revision: 1
# Processed by: cddbd v1.5.2PL0 Copyright (c) Steve Scherf et al.
# Submitted via: ExactAudioCopy v0.95b4
#
DISCID=ae0c140d
DTITLE=Robert Heger - RSO Berlin, RIAS-Kammerchor - Rothenberger, Puetz
DTITLE=, Gedda, Schreier - Albert Lortzing - Undine CD 1
DYEAR=1966
DGENRE=Opera
TTITLE0=Ouvertüre
TTITLE1=Da lieg, du altes Mordgewehr
TTITLE2=Dialog
TTITLE3=Ach, welche Freude, welche Wonne!
TTITLE4=Dialog
TTITLE5=Ich ritt zum großen Waffenspiele
TTITLE6=Dialog
TTITLE7=Züchtig Bräutlein, darfst erscheinen
TTITLE8=Dialog
TTITLE9=Uns beiden ist die Hauptstadt wohlbekannt!
TTITLE10=Hört ihr wohl, die Trauung ist vorüber
TTITLE11=Ich weiß ein Ding, schlürft man es ein
TTITLE12=Doch halt wo ist der Mann
EXTD=
EXTT0=
EXTT1=
EXTT2=
EXTT3=
EXTT4=
EXTT5=
EXTT6=
EXTT7=
EXTT8=
EXTT9=
EXTT10=
EXTT11=
EXTT12=
PLAYORDER=
